<svg xmlns="http://www.w3.org/2000/svg" width="222" height="100" viewBox="0 0 222 100"><title>Email</title><path d="M0 1H204Q221 1 221 18V82Q221 99 204 99H0Z" fill="#f7f7f7"/><path d="M0 1H204Q221 1 221 18V82Q221 99 204 99H0" fill="none" stroke="#dedede"/><svg xmlns="http://www.w3.org/2000/svg" width="52" height="52" viewBox="0 0 52 52" x="85" y="24"><title>Email</title><rect x="1" y="1" width="50" height="50" rx="14" fill="#f7f7f7" stroke="#dedede"/><g transform="translate(12 16) scale(.2)"><path fill="#4285F4" d="M18 90V30L0 16V90Z"/><path fill="#34A853" d="M122 90V30L140 16V90Z"/><path fill="#EA4335" d="M18 30L70 69L122 30V8L70 47L18 8Z"/><path fill="#FBBC04" d="M122 8L132 0Q140 0 140 10V30L122 44Z"/><path fill="#C5221F" d="M0 10Q0 0 8 0L18 8V44L0 30Z"/></g></svg></svg>
